<svg width="144" height="37" viewBox="0 0 144 37" fill="none" xmlns="http://www.w3.org/2000/svg">
<path d="M37.3711 23.7065C37.2052 23.7065 37.0547 23.8415 37.0547 24.0215V25.5122C37.0547 25.6936 37.2052 25.8286 37.3711 25.8286H42.3703V33.9286C42.3703 34.0945 42.5053 34.245 42.6853 34.245H44.1759C44.3573 34.245 44.4923 34.0945 44.4923 33.9286V25.8286H49.4916C49.6575 25.8286 49.808 25.6936 49.808 25.5122V24.0215C49.808 23.8415 49.6575 23.7065 49.4916 23.7065H37.3711ZM52.0116 23.7065C51.8456 23.7065 51.6952 23.8415 51.6952 24.0215V25.5122C51.6952 25.6936 51.8456 25.8286 52.0116 25.8286H64.0252C64.2066 25.8286 64.357 25.6936 64.357 25.5122V24.0215C64.357 23.8415 64.2066 23.7065 64.0252 23.7065H52.0116ZM70.4447 23.7065C68.1258 23.7065 66.2442 25.5881 66.2442 27.907V30.0445C66.2442 32.3634 68.1258 34.245 70.4447 34.245H78.5742C78.7556 34.245 78.9061 34.0945 78.9061 33.9286V32.4379C78.9061 32.2579 78.7556 32.1229 78.5742 32.1229H70.4447C69.3 32.1229 68.3663 31.1892 68.3663 30.0445V27.907C68.3663 26.7623 69.3 25.8286 70.4447 25.8286H78.5742C78.7556 25.8286 78.9061 25.6936 78.9061 25.5122V24.0215C78.9061 23.857 78.7556 23.7065 78.5742 23.7065H70.4447ZM81.7074 23.7065C81.5414 23.7065 81.3909 23.8415 81.3909 24.0215V33.9286C81.3909 34.0945 81.5414 34.245 81.7074 34.245H83.198C83.378 34.245 83.5144 34.0945 83.5144 33.9286V30.0445H88.7231C89.2955 30.0445 89.8369 30.3609 90.1237 30.8573L91.9448 34.079C92.0053 34.1845 92.1108 34.245 92.2317 34.245H93.9333C94.1892 34.245 94.3397 33.975 94.2188 33.764L91.9758 29.8195C91.7944 29.5031 91.5848 29.2162 91.3289 28.9758C91.5848 28.7353 91.7944 28.4484 91.9758 28.132L94.2188 24.1875C94.3397 23.9765 94.1892 23.7065 93.9333 23.7065H92.2317C92.1108 23.7065 92.0053 23.767 91.9448 23.8711L90.1237 27.0942C89.8369 27.5906 89.2955 27.907 88.7231 27.907H83.5144V24.0215C83.5144 23.8415 83.378 23.7065 83.198 23.7065H81.7074ZM96.8906 23.7065C96.7247 23.7065 96.5742 23.8415 96.5742 24.0215V33.9286C96.5742 34.0945 96.7247 34.245 96.8906 34.245H98.3812C98.5627 34.245 98.6977 34.0945 98.6977 33.9286V24.0215C98.6977 23.8415 98.5627 23.7065 98.3812 23.7065H96.8906ZM101.805 23.7065C101.641 23.7065 101.49 23.8415 101.49 24.0215V25.5122C101.49 25.6936 101.641 25.8286 101.805 25.8286H113.82C114.002 25.8286 114.152 25.6936 114.152 25.5122V24.0215C114.152 23.8415 114.002 23.7065 113.82 23.7065H101.805ZM116.608 23.7065C116.442 23.7065 116.291 23.8415 116.291 24.0215V25.5122C116.291 25.6936 116.442 25.8286 116.608 25.8286H128.621C128.803 25.8286 128.953 25.6936 128.953 25.5122V24.0215C128.953 23.8415 128.803 23.7065 128.621 23.7065H116.608ZM52.0116 27.907C51.8456 27.907 51.6952 28.0575 51.6952 28.2375V33.9286C51.6952 34.0945 51.8456 34.245 52.0116 34.245H64.0252C64.2066 34.245 64.357 34.0945 64.357 33.9286V32.4379C64.357 32.2579 64.2066 32.1229 64.0252 32.1229H53.8172V30.0445H61.9031C62.0831 30.0445 62.2195 29.894 62.2195 29.714V28.2375C62.2195 28.0575 62.0831 27.907 61.9031 27.907H52.0116ZM101.805 27.907C101.641 27.907 101.49 28.0575 101.49 28.2375V33.9286C101.49 34.0945 101.641 34.245 101.805 34.245H113.82C114.002 34.245 114.152 34.0945 114.152 33.9286V32.4379C114.152 32.2579 114.002 32.1229 113.82 32.1229H103.613V30.0445H111.697C111.878 30.0445 112.013 29.894 112.013 29.714V28.2375C112.013 28.0575 111.878 27.907 111.697 27.907H101.805ZM116.608 27.907C116.442 27.907 116.291 28.0575 116.291 28.2375V33.9286C116.291 34.0945 116.442 34.245 116.608 34.245H128.621C128.803 34.245 128.953 34.0945 128.953 33.9286V32.4379C128.953 32.2579 128.803 32.1229 128.621 32.1229H118.413V30.0445H126.499C126.679 30.0445 126.816 29.894 126.816 29.714V28.2375C126.816 28.0575 126.679 27.907 126.499 27.907H116.608Z" fill="white"/>
<g clip-path="url(#clip0_390_1107)">
<path d="M26.6075 4.38834C26.5944 4.32452 26.566 4.21668 26.5442 4.15065C26.5144 4.06419 26.4794 3.97966 26.4393 3.89756C26.4066 3.83154 26.352 3.7347 26.3193 3.67748C26.2865 3.62026 26.2297 3.55204 26.197 3.51243C26.1642 3.47281 26.0791 3.38038 26.0223 3.32316C25.9535 3.25689 25.8806 3.19514 25.8039 3.13829C25.7209 3.08113 25.634 3.02966 25.5441 2.98424C25.4615 2.94187 25.3761 2.90511 25.2886 2.8742C25.2319 2.85439 25.138 2.83018 25.0703 2.81478C25.0026 2.79937 24.9087 2.78616 24.8519 2.77956C24.7794 2.77209 24.7065 2.76842 24.6336 2.76856L24.448 2.77956C24.3978 2.77956 24.3061 2.80157 24.2427 2.81478C24.1794 2.82798 24.0833 2.85439 24.0244 2.8742C23.9456 2.90157 23.8684 2.93316 23.7929 2.96883C23.7252 3.00184 23.6292 3.05686 23.5746 3.09207C23.52 3.12729 23.4501 3.18011 23.4086 3.21312C23.3413 3.27043 23.2772 3.33141 23.2165 3.39578C23.1485 3.46491 23.085 3.53843 23.0265 3.61586C22.9695 3.69591 22.9191 3.78056 22.8759 3.86895C22.8336 3.95366 22.7972 4.04116 22.7667 4.13085C22.7413 4.20735 22.7201 4.28523 22.7034 4.36413C22.6855 4.44916 22.6724 4.53512 22.6641 4.62162C22.6641 4.73606 22.6641 5.9421 22.6641 6.91705C22.6641 7.892 22.6641 9.09583 22.6641 9.21467C22.6641 9.2829 22.6859 9.39294 22.699 9.45676C22.7152 9.53579 22.7363 9.61371 22.7623 9.69004C22.7896 9.7736 22.8224 9.85522 22.8606 9.93433C22.902 10.0168 22.9479 10.0969 22.9981 10.1742C23.048 10.251 23.1027 10.3246 23.1619 10.3943C23.2056 10.4427 23.2776 10.5175 23.3278 10.5638C23.3975 10.6228 23.4704 10.6779 23.5462 10.7288C23.6168 10.7744 23.6897 10.8163 23.7645 10.8543C23.817 10.8807 23.9043 10.9203 23.9545 10.9401C24.0261 10.9667 24.0989 10.9894 24.1729 11.0083C24.2362 11.0237 24.3279 11.0435 24.3912 11.0523C24.4877 11.0626 24.5846 11.0677 24.6816 11.0677C24.7711 11.0677 24.9 11.0677 24.9742 11.0523C25.0485 11.0369 25.1183 11.0237 25.1773 11.0061C25.2512 10.9882 25.3241 10.9662 25.3956 10.9401C25.4591 10.9168 25.5211 10.8896 25.5812 10.8587C25.6451 10.8264 25.7071 10.7904 25.7668 10.7508C25.8214 10.7156 25.9 10.6562 25.9459 10.6188C25.9917 10.5814 26.0703 10.5065 26.1271 10.4493C26.1842 10.3883 26.2381 10.3244 26.2887 10.2578C26.3214 10.2116 26.3717 10.1368 26.3979 10.0928C26.4326 10.0361 26.464 9.97726 26.4917 9.91672C26.5249 9.84506 26.5541 9.77158 26.5791 9.69664C26.6009 9.62842 26.6293 9.52278 26.6424 9.45896C26.6589 9.36352 26.6706 9.26729 26.6773 9.17066C26.6773 9.05842 26.6773 7.92721 26.6773 6.92365C26.6773 5.92009 26.6773 4.78668 26.6773 4.67664C26.66 4.57918 26.6366 4.4829 26.6075 4.38834ZM25.1445 9.75387C25.1271 9.75387 25.0681 9.80008 25.0179 9.82649C24.9723 9.84799 24.9257 9.86709 24.8781 9.88371C24.8306 9.89463 24.7825 9.90272 24.734 9.90792C24.7064 9.91 24.6787 9.91 24.6511 9.90792C24.6256 9.91017 24.6001 9.91017 24.5746 9.90792C24.5255 9.90235 24.4767 9.89427 24.4283 9.88371C24.3815 9.86806 24.3355 9.84969 24.2908 9.82869C24.2454 9.80687 24.2016 9.78187 24.1598 9.75387C24.1195 9.72378 24.0815 9.69067 24.0462 9.65483C24.012 9.6192 23.9806 9.58093 23.9523 9.54039C23.9275 9.5029 23.9049 9.46395 23.8846 9.42375C23.8694 9.38853 23.8453 9.32251 23.8301 9.28069L23.8126 9.21907V4.62162L23.8301 4.5622C23.8453 4.51819 23.8694 4.45216 23.8825 4.42135C23.8956 4.39054 23.9327 4.33332 23.9523 4.30251C23.98 4.2634 24.0099 4.22592 24.0419 4.19027C24.0756 4.15731 24.1114 4.12644 24.1488 4.09784C24.1916 4.06617 24.2368 4.0382 24.2842 4.01421C24.333 3.99153 24.3834 3.97241 24.4349 3.95698L24.5615 3.93278H24.6358H24.7275C24.7746 3.93865 24.8212 3.94747 24.8672 3.95919C24.9112 3.97135 24.9543 3.9868 24.996 4.0054C25.0354 4.02521 25.0965 4.06042 25.1271 4.08023C25.1725 4.11615 25.2156 4.15512 25.2559 4.19687C25.2947 4.23816 25.3305 4.28229 25.3629 4.32892C25.3825 4.36193 25.4109 4.41695 25.424 4.44336C25.4371 4.46977 25.459 4.54019 25.4699 4.57981L25.4852 4.63923V9.20147L25.4677 9.26309C25.4458 9.35695 25.4065 9.44581 25.352 9.52498C25.3211 9.57144 25.286 9.61491 25.2472 9.65483C25.2148 9.68971 25.1805 9.72277 25.1445 9.75387Z" fill="#FCFCFC"/>
<path d="M39.3987 26.3589C39.3703 26.2873 39.328 26.2222 39.2743 26.1674C39.2261 26.1198 39.1718 26.0791 39.1127 26.0463L39.0144 25.9979H36.5995V23.3064H38.962L39.0581 23.2711C39.1849 23.22 39.2899 23.1258 39.355 23.0049C39.3834 22.9472 39.4033 22.8856 39.414 22.8222C39.4216 22.7652 39.4216 22.7075 39.414 22.6505C39.4058 22.5884 39.3874 22.5282 39.3594 22.4723C39.3343 22.4264 39.3051 22.3829 39.2721 22.3424C39.2377 22.3062 39.1996 22.2738 39.1585 22.2456C39.1068 22.2143 39.0509 22.1906 38.9926 22.1752C38.9118 22.1553 38.8703 22.1531 37.6213 22.1531H36.582V22.0365C36.5968 21.8821 36.5835 21.7262 36.5427 21.5765C36.5209 21.5272 36.4946 21.4801 36.4641 21.4357C36.4236 21.3814 36.3741 21.3344 36.3178 21.297C36.2612 21.263 36.2002 21.2371 36.1366 21.22C36.0952 21.2091 36.0527 21.2032 36.0099 21.2024C35.9765 21.1988 35.9429 21.1988 35.9095 21.2024C35.8204 21.2234 35.7328 21.2506 35.6474 21.2838C35.5536 21.319 35.4116 21.3763 35.3287 21.4115L35.0557 21.5347C34.988 21.5677 34.8592 21.6338 34.7697 21.6822L34.5011 21.834C34.4422 21.8692 34.333 21.9397 34.2587 21.9881C34.1845 22.0365 34.0557 22.1289 33.9749 22.1906C33.8941 22.2522 33.7806 22.3424 33.7238 22.393C33.667 22.4437 33.5753 22.5295 33.5185 22.5867C33.4618 22.6439 33.3679 22.743 33.3133 22.8068C33.2587 22.8706 33.1779 22.9696 33.1364 23.0269C33.0949 23.0841 33.0272 23.1875 32.9858 23.2469C32.9443 23.3064 32.8853 23.4252 32.8438 23.5132C32.8023 23.6013 32.7565 23.7091 32.7303 23.7883C32.7041 23.8676 32.6735 23.9776 32.656 24.0546H30.228V19.8401L30.2083 19.7213C30.2083 19.6619 30.1799 19.5694 30.1668 19.5188C30.1537 19.4682 30.1297 19.3625 30.1079 19.2987C30.0861 19.2349 30.0468 19.1161 30.0162 19.0434C29.9856 18.9708 29.9376 18.8696 29.9048 18.8079C29.8721 18.7463 29.8066 18.6341 29.7607 18.5615C29.7149 18.4888 29.6494 18.4008 29.6122 18.3546C29.5751 18.3084 29.49 18.2115 29.4245 18.1345C29.3488 18.0572 29.2694 17.9837 29.1865 17.9144C29.1188 17.8594 29.0118 17.7802 28.9397 17.7318C28.8677 17.6833 28.7694 17.6261 28.7214 17.5953C28.6733 17.5645 28.5729 17.5183 28.5183 17.4941C28.4637 17.4699 28.3764 17.4391 28.3152 17.417C28.2541 17.395 28.1449 17.362 28.0707 17.3422C27.9964 17.3224 27.8764 17.3004 27.7956 17.2872L27.6449 17.263H26.4811C26.4593 17.208 26.4309 17.142 26.4069 17.0935C26.3671 17.0179 26.3233 16.9444 26.2758 16.8735C26.2291 16.8048 26.1788 16.7387 26.1252 16.6754C26.0687 16.6093 26.0081 16.5468 25.9439 16.4883C25.885 16.4377 25.7977 16.3695 25.7452 16.3343C25.6856 16.2918 25.6237 16.2529 25.5597 16.2176C25.4887 16.1813 25.4158 16.149 25.3413 16.1208C25.2699 16.0918 25.1971 16.0668 25.1229 16.046C25.0618 16.0306 24.957 16.0085 24.8893 15.9997C24.5304 15.9729 24.1703 15.9663 23.8107 15.9799H23.0901V13.8452H29.8131L29.9288 13.7835C29.996 13.7462 30.0553 13.6961 30.1035 13.6361C30.1404 13.5861 30.1705 13.5313 30.1931 13.4732L30.228 13.3786V0.440158L30.1778 0.336721C30.1494 0.277524 30.1118 0.223285 30.0664 0.176063C30.0212 0.132277 29.9705 0.094552 29.9157 0.0638229L29.8088 0H12.4128L12.3101 0.041815C12.2582 0.06542 12.2091 0.0949572 12.1638 0.129847C12.132 0.157152 12.1028 0.187358 12.0765 0.220079C12.0417 0.26398 12.0137 0.312957 11.9935 0.365331L11.9608 0.451162V13.4116L12.0066 13.5084C12.035 13.5702 12.0734 13.6267 12.1202 13.6757C12.1654 13.7195 12.216 13.7572 12.2708 13.7879L12.3713 13.8408H19.0921V15.9689H18.127C16.9283 15.9689 16.8627 15.9689 16.8278 15.9689C16.7929 15.9689 16.6946 15.9887 16.6509 15.9997C16.5772 16.0149 16.5043 16.034 16.4326 16.057C16.3402 16.0897 16.2498 16.1279 16.1618 16.1714C16.0726 16.2169 15.9866 16.2684 15.9042 16.3255C15.8134 16.392 15.728 16.4655 15.6487 16.5455C15.5693 16.6247 15.4963 16.71 15.4304 16.8008C15.3736 16.8818 15.3232 16.9672 15.2797 17.0561C15.2477 17.1182 15.2193 17.1822 15.1945 17.2476H14.9544C14.7698 17.2434 14.5851 17.253 14.4019 17.2762C14.3211 17.2894 14.212 17.3092 14.1552 17.3246C14.0984 17.34 14.0024 17.3642 13.9368 17.3862C13.8713 17.4082 13.7643 17.4479 13.7032 17.4743C13.6421 17.5007 13.5329 17.5535 13.4674 17.5887C13.4019 17.6239 13.2949 17.6899 13.225 17.7362C13.1552 17.7824 13.0547 17.8594 12.9914 17.91C12.9281 17.9606 12.8233 18.0641 12.7512 18.1301C12.674 18.2136 12.6011 18.301 12.5329 18.392C12.4804 18.4602 12.4171 18.5549 12.3866 18.6121C12.356 18.6693 12.2927 18.7793 12.2468 18.8762C12.1914 18.9953 12.144 19.1181 12.1049 19.2437C12.0765 19.3317 12.0394 19.4638 12.0197 19.554C12.0001 19.6442 11.9848 19.7521 11.9761 19.8313C11.9608 19.9524 11.9586 20.2297 11.9586 22.2874C11.9586 23.434 11.9586 24.1427 11.9586 24.4244C11.8843 24.4473 11.8114 24.4745 11.7402 24.5058C11.6769 24.5344 11.5852 24.5828 11.5219 24.6136C11.4586 24.6444 11.3974 24.6951 11.3559 24.7259C11.3145 24.7567 11.2315 24.8293 11.1747 24.8821C11.1171 24.9386 11.0624 24.9981 11.0109 25.0604C10.9782 25.1022 10.9258 25.1726 10.8974 25.2166C10.8069 25.3537 10.7336 25.5016 10.6791 25.6568C10.6527 25.7362 10.6308 25.817 10.6136 25.8989C10.5955 25.9853 10.5831 26.0728 10.5764 26.1608C10.5699 26.2538 10.5699 26.3472 10.5764 26.4403C10.5816 26.5268 10.5926 26.6128 10.6092 26.6978C10.6223 26.7594 10.6507 26.865 10.6725 26.9311C10.7071 27.0212 10.7479 27.1087 10.7948 27.193C10.8367 27.2767 10.8842 27.3576 10.9367 27.435C10.9966 27.512 11.0607 27.5855 11.1289 27.6551C11.1969 27.7283 11.2699 27.7967 11.3472 27.8598C11.404 27.904 11.463 27.9451 11.5241 27.983C11.5634 28.0072 11.642 28.0469 11.7009 28.0777C11.7599 28.1085 11.8603 28.1459 11.9193 28.1657L12.1376 28.2251C12.2656 28.2504 12.3961 28.26 12.5263 28.2537C12.6544 28.2604 12.7827 28.2508 12.9084 28.2251C12.9822 28.2084 13.0551 28.1879 13.1268 28.1635C13.2013 28.1406 13.2743 28.1126 13.3451 28.0799C13.42 28.0451 13.4929 28.0062 13.5635 27.9632C13.6313 27.9197 13.6969 27.8727 13.76 27.8224C13.8239 27.7683 13.8851 27.711 13.9434 27.6507C13.9893 27.6001 14.0569 27.5209 14.0919 27.4747C14.1268 27.4284 14.1814 27.3448 14.2142 27.2876C14.2942 27.1485 14.3586 27.0009 14.4063 26.8474C14.4216 26.7924 14.4434 26.7022 14.4522 26.6494C14.4656 26.5589 14.4744 26.4678 14.4784 26.3765C14.4839 26.2804 14.4839 26.1842 14.4784 26.0882C14.4784 26.0265 14.4587 25.9385 14.4478 25.8879C14.4369 25.8373 14.4129 25.7492 14.391 25.681C14.3621 25.596 14.3278 25.5129 14.2884 25.4323C14.2488 25.3566 14.2051 25.2831 14.1574 25.2122C14.1181 25.155 14.0482 25.0648 14.0024 25.012C13.9511 24.9523 13.8964 24.8957 13.8386 24.8425C13.7971 24.8073 13.7294 24.7523 13.6879 24.7215C13.6256 24.676 13.5607 24.6341 13.4936 24.596C13.423 24.5552 13.3501 24.5184 13.2752 24.486C13.2338 24.4706 13.177 24.4486 13.1246 24.4332V22.3446C13.1246 21.7922 13.1246 20.1174 13.1246 19.9986C13.1246 19.9436 13.1464 19.8467 13.1573 19.7785C13.1683 19.7103 13.1966 19.6288 13.2141 19.576C13.2429 19.5009 13.2757 19.4275 13.3124 19.3559C13.348 19.2859 13.3881 19.2183 13.4325 19.1535C13.4796 19.0901 13.5299 19.0291 13.5831 18.9708C13.6355 18.918 13.7098 18.8476 13.7447 18.8168C13.7796 18.7859 13.8473 18.7353 13.8932 18.7045C13.939 18.6737 14.0111 18.6341 14.0766 18.6011C14.147 18.5655 14.22 18.5353 14.2949 18.5108C14.3609 18.4884 14.428 18.4693 14.4958 18.4536C14.5482 18.4536 14.6443 18.4316 14.7142 18.4272C14.784 18.4228 14.9325 18.4272 15.0701 18.4272H15.129C15.1421 18.491 15.164 18.5659 15.1793 18.6143C15.1945 18.6627 15.2382 18.7771 15.2622 18.8344C15.2863 18.8916 15.3321 18.9708 15.3627 19.0214C15.3932 19.072 15.4456 19.1513 15.4806 19.1975C15.5247 19.2566 15.5721 19.3132 15.6225 19.3669C15.6749 19.4257 15.7319 19.4802 15.7928 19.5298C15.8558 19.5823 15.9214 19.6315 15.9893 19.6773C16.0596 19.7228 16.1325 19.764 16.2077 19.8005C16.2788 19.8345 16.3517 19.8646 16.426 19.8907C16.4894 19.9127 16.592 19.9414 16.6553 19.9568C16.7186 19.9722 16.8103 19.9854 16.8737 19.992C16.937 19.9986 17.2623 19.992 17.4479 19.992H17.6816V25.2739L17.7165 25.3729C17.7461 25.4509 17.7932 25.5209 17.8541 25.5776C17.9105 25.6381 17.9811 25.6835 18.0593 25.7096C17.9742 26.075 17.0745 29.9748 17.0745 29.9748H16.6378C16.3387 29.9748 15.9719 29.9748 15.8758 29.988C15.7797 30.0012 15.6574 30.0122 15.5701 30.0254C15.4828 30.0386 15.3518 30.0716 15.2688 30.0914C15.1858 30.1112 15.0745 30.1464 15.0111 30.1684C14.9478 30.1904 14.8299 30.2388 14.7535 30.2741C14.6771 30.3093 14.5613 30.3643 14.5067 30.3951C14.4522 30.4259 14.3648 30.4765 14.3146 30.5073C14.2644 30.5382 14.1617 30.613 14.0831 30.6724C14.0045 30.7318 13.8888 30.8287 13.8299 30.8925C13.7709 30.9563 13.6748 31.0443 13.6115 31.1126C13.5482 31.1808 13.4587 31.293 13.3932 31.3679C13.3276 31.4427 13.2621 31.5505 13.2294 31.6033C13.1966 31.6562 13.1508 31.7354 13.1202 31.7926C13.0896 31.8498 13.0329 31.9621 12.9979 32.0435C12.963 32.1249 12.9171 32.2372 12.8931 32.3032C12.8691 32.3692 12.8385 32.4837 12.8167 32.5607C12.7949 32.6377 12.7665 32.7808 12.7512 32.8666C12.7359 32.9524 12.7206 33.0867 12.7141 33.1747C12.7075 33.2627 12.701 33.3618 12.701 33.3948C12.7022 33.4601 12.711 33.5251 12.7272 33.5885C12.7439 33.6398 12.7659 33.6892 12.7927 33.7359C12.8246 33.7821 12.862 33.8243 12.904 33.8613C12.9559 33.9063 13.015 33.9421 13.0787 33.967L13.1704 34.0022H17.6903L17.7951 33.9516C17.856 33.9198 17.9113 33.8782 17.9589 33.8283C18.0017 33.7792 18.0377 33.7244 18.0659 33.6655L18.1139 33.5642V30.4963L19.2056 25.758H22.4372L23.3696 30.5998V33.5885L23.4154 33.6809C23.4396 33.7306 23.4696 33.7772 23.505 33.8195C23.5517 33.8699 23.6063 33.9123 23.6666 33.945L23.7801 34.0044H28.3502L28.4484 33.9582C28.5097 33.9296 28.5658 33.8909 28.6144 33.8437C28.6614 33.7957 28.6998 33.7399 28.7279 33.6787L28.776 33.5752V33.3288C28.7769 33.2028 28.7682 33.077 28.7498 32.9524C28.7367 32.8644 28.7148 32.7323 28.6995 32.6795C28.6842 32.6267 28.6559 32.5035 28.634 32.4286C28.6122 32.3538 28.5773 32.2504 28.5554 32.2086C28.5336 32.1667 28.479 32.0259 28.431 31.9291C28.3829 31.8322 28.3174 31.709 28.2759 31.6385C28.2344 31.5681 28.182 31.4933 28.1537 31.4537C28.1253 31.4141 28.0619 31.3282 28.0161 31.271C27.9398 31.1782 27.8589 31.0894 27.7737 31.0047C27.6842 30.9145 27.5554 30.8001 27.4855 30.7428C27.4156 30.6856 27.3065 30.6108 27.2409 30.5668C27.1754 30.5228 27.0706 30.4589 27.0226 30.4281C26.9746 30.3973 26.8479 30.3357 26.7715 30.3005C26.6951 30.2653 26.5728 30.219 26.4942 30.1904L26.2562 30.1156L26.0378 30.065C25.9767 30.054 25.8653 30.0342 25.7911 30.0254C25.5073 29.9998 25.2222 29.9909 24.9374 29.999H24.4199L24.0094 27.862C23.8128 26.8496 23.6687 26.1014 23.6032 25.7448L23.6884 25.7118C23.7501 25.6783 23.8067 25.636 23.8565 25.5864C23.896 25.5385 23.9298 25.486 23.957 25.4301L24.0028 25.3289V20.0184H24.8282L24.9636 19.992C25.0478 19.9751 25.1309 19.9531 25.2125 19.9259C25.297 19.8912 25.3793 19.8516 25.4592 19.8071C25.5225 19.7763 25.6099 19.7279 25.6514 19.7037C25.7033 19.6711 25.7536 19.6358 25.802 19.598C25.8413 19.5694 25.9025 19.5166 25.9396 19.4836C25.9952 19.4341 26.0477 19.3812 26.0968 19.3251C26.1426 19.2723 26.2103 19.1865 26.2496 19.1293C26.2889 19.072 26.3413 18.9818 26.3697 18.9246C26.408 18.8532 26.4423 18.7797 26.4724 18.7045C26.4942 18.6429 26.5269 18.5395 26.5422 18.4844C26.5422 18.4712 26.5422 18.4558 26.5422 18.4404H26.8588C27.1667 18.4404 27.42 18.4404 27.4768 18.4404C27.5544 18.4467 27.6316 18.457 27.7082 18.4712C27.7694 18.4844 27.8611 18.5108 27.9091 18.5262C27.9571 18.5417 28.051 18.5835 28.1056 18.6099C28.1682 18.6404 28.2287 18.675 28.2868 18.7133C28.3327 18.7419 28.4004 18.7925 28.4375 18.8212C28.492 18.868 28.5438 18.918 28.5925 18.9708C28.6422 19.0202 28.6882 19.0731 28.7301 19.1293C28.7585 19.1667 28.8022 19.2305 28.824 19.2679C28.8562 19.3219 28.8854 19.3778 28.9113 19.4352C28.9413 19.4981 28.9675 19.5628 28.9899 19.6288C29.0095 19.6895 29.0255 19.7512 29.038 19.8137C29.038 19.8643 29.062 19.9458 29.0664 19.992C29.0707 20.0382 29.0664 20.2935 29.0664 22.3996V24.7699L29.1362 24.8689C29.1564 24.9204 29.1828 24.9692 29.2148 25.0142C29.2518 25.0599 29.2952 25.1 29.3437 25.133C29.3847 25.1612 29.4286 25.1848 29.4747 25.2034C29.5511 25.2299 29.5533 25.2321 31.2215 25.2321H32.6691C32.6866 25.3025 32.7084 25.3883 32.7281 25.4521C32.7478 25.516 32.7892 25.626 32.8176 25.692C32.846 25.758 32.8962 25.8637 32.9312 25.9253C32.9661 25.9869 33.0229 26.0816 33.0578 26.1454L33.1735 26.3104C33.2019 26.3479 33.2609 26.4205 33.3067 26.4755C33.3526 26.5305 33.4465 26.6318 33.5251 26.6956C33.6037 26.7594 33.7107 26.8716 33.7849 26.9355C33.8592 26.9993 33.9683 27.0851 34.0338 27.1335C34.0993 27.182 34.1998 27.2546 34.2631 27.2964C34.3264 27.3382 34.4334 27.4064 34.5077 27.4526C34.5819 27.4989 34.7129 27.5715 34.8002 27.6177C34.8876 27.6639 35.0317 27.7388 35.1169 27.7784C35.202 27.818 35.3352 27.8774 35.4029 27.906C35.4706 27.9346 35.595 27.9852 35.678 28.0161L35.8964 28.0865C35.9422 28.0972 35.9891 28.1024 36.0361 28.1019H36.082C36.1577 28.0988 36.232 28.0801 36.3003 28.0469C36.3591 28.0156 36.4129 27.9756 36.4597 27.928C36.4968 27.8851 36.5297 27.8387 36.558 27.7894C36.5806 27.7371 36.5975 27.6825 36.6082 27.6265C36.62 27.4963 36.6251 27.3655 36.6235 27.2348V27.1621H37.6716C38.9358 27.1621 38.9817 27.1621 39.0472 27.1401C39.1022 27.1223 39.155 27.0979 39.2044 27.0675C39.2592 27.029 39.3078 26.9822 39.3485 26.9289C39.3832 26.8801 39.4111 26.8268 39.4315 26.7704C39.4502 26.7076 39.4597 26.6423 39.4599 26.5767C39.4521 26.5011 39.4314 26.4274 39.3987 26.3589ZM34.0186 25.4785C33.988 25.4301 33.9378 25.3443 33.9116 25.2893C33.8811 25.227 33.8541 25.1631 33.8308 25.0978C33.8133 25.045 33.7893 24.9614 33.7784 24.9085C33.7594 24.8182 33.7528 24.7256 33.7587 24.6334V24.4398L33.7827 24.3407C33.798 24.2744 33.8169 24.209 33.8395 24.1449C33.857 24.0986 33.8941 24.015 33.9203 23.9644C33.9465 23.9138 33.9924 23.8346 34.0164 23.7993C34.0404 23.7641 34.095 23.6871 34.1277 23.6431C34.1605 23.5991 34.2413 23.511 34.3264 23.423C34.4066 23.3407 34.4912 23.2628 34.5797 23.1897C34.6452 23.1369 34.75 23.0599 34.8112 23.0137C34.8723 22.9674 34.9968 22.8904 35.0819 22.8376C35.1671 22.7848 35.3003 22.7099 35.4378 22.6439C35.4378 23.0335 35.4378 23.7443 35.4378 24.6246V26.6053L35.1758 26.4667C35.1212 26.4337 35.0252 26.3765 34.9575 26.3347C34.8898 26.2928 34.7828 26.218 34.7085 26.1608C34.6343 26.1036 34.5186 26.0111 34.4531 25.9539C34.3876 25.8967 34.3046 25.8131 34.2631 25.769C34.2216 25.725 34.1648 25.6568 34.1321 25.615C34.0993 25.5732 34.0404 25.5292 34.0076 25.4895L34.0186 25.4785ZM16.2186 17.9827C16.2123 17.9138 16.219 17.8443 16.2383 17.778C16.2522 17.7259 16.2705 17.6751 16.2928 17.6261C16.3109 17.586 16.3313 17.5471 16.354 17.5095C16.3816 17.471 16.4115 17.4343 16.4435 17.3994C16.4784 17.3642 16.5309 17.3158 16.5505 17.3004C16.5903 17.272 16.6318 17.2463 16.675 17.2234C16.7152 17.2017 16.7568 17.1826 16.7994 17.1662C16.83 17.1662 16.8824 17.1442 16.9195 17.1375C16.9566 17.1309 17.5374 17.1243 18.7646 17.1243H20.531V18.8322H18.8432C17.5331 18.8322 16.9807 18.8322 16.913 18.8322C16.8687 18.8227 16.825 18.811 16.782 18.7969C16.7416 18.7819 16.7022 18.7643 16.664 18.7441C16.6264 18.7227 16.5899 18.6992 16.5549 18.6737C16.515 18.6431 16.4778 18.6093 16.4435 18.5725C16.4109 18.5366 16.3809 18.4984 16.354 18.458C16.3289 18.4192 16.3062 18.3788 16.2863 18.337C16.2668 18.2903 16.25 18.2426 16.2361 18.1939C16.2181 18.1251 16.2122 18.0536 16.2186 17.9827ZM20.2472 15.9733V13.8452H21.9307V15.9733H20.2472ZM18.8104 19.992H22.8608V24.5872H18.8148L18.8104 19.992ZM21.673 18.8388V17.1265H24.7408L24.8107 17.1464C24.867 17.163 24.9217 17.1844 24.9745 17.2102C25.0226 17.2341 25.0686 17.2621 25.112 17.2938C25.1512 17.3244 25.1884 17.3575 25.2234 17.3928C25.2529 17.4258 25.2806 17.4603 25.3064 17.4963C25.3238 17.5249 25.3544 17.5799 25.3741 17.6195C25.3963 17.6678 25.4146 17.7179 25.4286 17.7692C25.4465 17.8411 25.4517 17.9156 25.4439 17.9893V18.1411L25.4243 18.2071C25.4069 18.2624 25.385 18.3162 25.3588 18.3678C25.3314 18.4218 25.2985 18.4727 25.2605 18.5196C25.2252 18.5637 25.1857 18.6043 25.1426 18.6407C25.0955 18.6772 25.0459 18.7103 24.9941 18.7397C24.9461 18.7617 24.8762 18.7903 24.8478 18.7991C24.8194 18.8079 24.7408 18.8234 24.7037 18.83C24.6338 18.83 24.0771 18.83 23.0464 18.83L21.673 18.8388ZM13.0984 1.15321H29.086V12.6898H13.0984V1.15321ZM12.6617 25.5027C12.7108 25.5118 12.759 25.525 12.8058 25.5424C12.854 25.5615 12.9007 25.5843 12.9455 25.6106C12.9958 25.6431 13.0426 25.6807 13.0853 25.7228C13.1265 25.7631 13.1638 25.8073 13.1966 25.8549C13.2201 25.8916 13.2413 25.9299 13.26 25.9693C13.2785 26.0119 13.2931 26.0561 13.3036 26.1014C13.3159 26.1543 13.3246 26.2079 13.3298 26.262C13.3326 26.3173 13.3289 26.3727 13.3189 26.4271C13.3097 26.481 13.2959 26.5341 13.2774 26.5855C13.2592 26.6327 13.2373 26.6783 13.2119 26.722C13.1824 26.7682 13.1488 26.8117 13.1115 26.8518C13.0752 26.8911 13.0358 26.9271 12.9936 26.9597C12.9581 26.9851 12.9209 27.0079 12.8822 27.0279C12.8605 27.04 12.8379 27.0503 12.8145 27.0587L12.7163 27.0895C12.6681 27.0997 12.6192 27.1056 12.57 27.1071H12.5067C12.474 27.1098 12.4411 27.1098 12.4084 27.1071C12.3234 27.0943 12.2409 27.0683 12.1638 27.0301C12.1311 27.0125 12.0809 26.9817 12.0525 26.9619C12.0159 26.9347 11.9815 26.9045 11.9499 26.8716C11.9138 26.8347 11.8816 26.7942 11.8538 26.7506C11.8289 26.7151 11.807 26.6775 11.7883 26.6384C11.7883 26.6119 11.7577 26.5569 11.7468 26.5195C11.7302 26.4608 11.7221 26.4001 11.7228 26.3391C11.7135 26.2756 11.7135 26.2111 11.7228 26.1476C11.7337 26.0984 11.7476 26.0499 11.7643 26.0023C11.7835 25.9592 11.8054 25.9173 11.8298 25.8769C11.8582 25.8344 11.8896 25.7939 11.9237 25.7558C11.9597 25.7179 11.9984 25.6826 12.0394 25.6502C12.0743 25.6251 12.1107 25.6023 12.1486 25.582C12.1791 25.5666 12.2272 25.5468 12.2621 25.5336C12.2973 25.5229 12.333 25.5141 12.3691 25.5072C12.4149 25.5047 12.4608 25.5047 12.5067 25.5072C12.5566 25.5012 12.6071 25.4997 12.6573 25.5027H12.6617ZM16.5287 31.1368H16.9654V32.8446H13.9259L13.963 32.7191C13.989 32.6442 14.0188 32.5707 14.0526 32.4991C14.0848 32.4237 14.1213 32.3502 14.1617 32.279C14.1989 32.2174 14.2556 32.1271 14.2906 32.0809C14.3255 32.0347 14.3866 31.9555 14.4325 31.9048C14.4784 31.8542 14.5548 31.775 14.605 31.7288C14.6552 31.6826 14.736 31.6187 14.7819 31.5857C14.8277 31.5527 14.9041 31.4999 14.9587 31.4669C15.0133 31.4339 15.0919 31.3921 15.14 31.3701C15.188 31.348 15.2666 31.3106 15.3103 31.293C15.3539 31.2754 15.4478 31.2468 15.5112 31.2292C15.5829 31.2076 15.6558 31.19 15.7295 31.1764C15.795 31.1764 15.8955 31.1522 15.9479 31.15C16.0003 31.1478 16.2186 31.1368 16.5243 31.1368H16.5287ZM27.5619 32.8446H24.5181V31.1324H24.9352C25.5313 31.1324 25.6208 31.1478 25.6295 31.1478C25.671 31.1478 25.7605 31.1698 25.8282 31.1852C25.9131 31.2022 25.997 31.2243 26.0793 31.2512C26.1768 31.2836 26.2717 31.3233 26.3632 31.3701C26.444 31.4097 26.551 31.4735 26.599 31.5043C26.647 31.5351 26.7322 31.5989 26.7737 31.6319C26.8152 31.665 26.9003 31.7442 26.9571 31.8014C27.0139 31.8586 27.0925 31.9445 27.1209 31.9775C27.1492 32.0105 27.2126 32.1029 27.2497 32.1579C27.3 32.2368 27.3459 32.3183 27.3872 32.4022C27.4271 32.4832 27.4628 32.5662 27.4942 32.6509C27.5183 32.7081 27.5423 32.7918 27.5576 32.8446H27.5619Z" fill="#FCFCFC"/>
<path d="M19.439 4.16628C19.4126 4.08764 19.382 4.0105 19.3473 3.9352C19.3171 3.8704 19.2836 3.80722 19.2469 3.74593C19.2128 3.68818 19.1756 3.63235 19.1355 3.57867C19.1006 3.53246 19.0329 3.45323 18.9849 3.40041C18.9283 3.34133 18.8685 3.28549 18.8058 3.23315C18.76 3.19573 18.677 3.13411 18.6202 3.0967C18.5634 3.05929 18.4695 3.00647 18.4019 2.97566C18.3228 2.93904 18.2419 2.90671 18.1595 2.87882C18.0695 2.84892 17.9776 2.82539 17.8844 2.8084C17.7854 2.79247 17.6854 2.78291 17.5852 2.77979H17.5175C17.4433 2.77979 17.3691 2.77979 17.3254 2.77979L17.142 2.8084C17.0896 2.8194 16.9891 2.84581 16.9236 2.86782C16.8381 2.89773 16.7543 2.93226 16.6725 2.97125C16.5879 3.01258 16.5062 3.05964 16.428 3.1121C16.3524 3.16249 16.2795 3.21685 16.2096 3.27496C16.1402 3.33853 16.0746 3.40614 16.0131 3.47744C15.9592 3.54281 15.9089 3.61114 15.8624 3.68211C15.8297 3.73273 15.7751 3.82736 15.7445 3.88898C15.7074 3.96555 15.6746 4.04417 15.6463 4.12447C15.6207 4.19645 15.5996 4.26995 15.5829 4.34455C15.5698 4.40397 15.5546 4.5052 15.548 4.56463C15.5415 4.62405 15.5349 4.84633 15.5349 6.91287C15.5349 8.97941 15.5349 9.20389 15.548 9.25671C15.556 9.33062 15.5676 9.40407 15.5829 9.47679C15.6001 9.55559 15.6212 9.63346 15.6463 9.71007C15.6703 9.77389 15.714 9.87733 15.7445 9.93015C15.7831 10.006 15.8261 10.0795 15.8734 10.1502C15.9148 10.2096 15.9869 10.3043 16.0371 10.3703C16.0973 10.4373 16.1615 10.5005 16.2293 10.5596C16.2817 10.6036 16.369 10.6696 16.417 10.7048C16.4651 10.74 16.5764 10.8017 16.6354 10.8347C16.6944 10.8677 16.8123 10.9139 16.8821 10.9403C16.952 10.9667 17.0524 10.9909 17.1114 11.0041C17.1704 11.0173 17.2883 11.0327 17.3669 11.0393C17.4207 11.0423 17.4746 11.0423 17.5285 11.0393H17.6835C17.7775 11.0305 17.8708 11.0158 17.963 10.9953C18.0307 10.9799 18.1289 10.9513 18.1813 10.9315C18.2337 10.9117 18.3167 10.8787 18.3626 10.8567C18.4084 10.8347 18.4892 10.7929 18.5416 10.762C18.6011 10.7255 18.6587 10.6858 18.7141 10.6432C18.7736 10.5989 18.8305 10.5512 18.8844 10.5002C18.9324 10.4539 19.0045 10.3791 19.0482 10.3285C19.0918 10.2779 19.1508 10.1942 19.1836 10.1436C19.23 10.0724 19.273 9.99899 19.3124 9.92355C19.3594 9.84661 19.4009 9.76645 19.4368 9.68366C19.4587 9.61764 19.4871 9.5054 19.5023 9.43277L19.5307 9.29412V4.55142L19.5023 4.41277C19.4853 4.32959 19.4642 4.24733 19.439 4.16628ZM16.8188 9.5098C16.7913 9.46321 16.7672 9.41466 16.7468 9.36455C16.7315 9.32273 16.7118 9.25671 16.7031 9.2237V9.16648V4.67246L16.7206 4.60644C16.7316 4.55579 16.7477 4.50639 16.7686 4.45899C16.7887 4.4097 16.8136 4.36252 16.8428 4.31814C16.8754 4.27033 16.9119 4.22541 16.952 4.18389C17.0242 4.11364 17.1067 4.05499 17.1966 4.01003C17.2376 3.992 17.2799 3.97728 17.3232 3.96601C17.3659 3.953 17.4098 3.94415 17.4542 3.9396H17.5394H17.6333C17.6832 3.94316 17.7329 3.95052 17.7817 3.96161C17.8296 3.97557 17.8763 3.99323 17.9215 4.01443C17.9661 4.0368 18.0085 4.06333 18.0481 4.09366C18.0899 4.12596 18.1293 4.16126 18.166 4.19929C18.1966 4.23265 18.2251 4.26793 18.2512 4.30493C18.2762 4.34271 18.2981 4.38246 18.3167 4.42377C18.3389 4.47382 18.3579 4.52528 18.3735 4.57783L18.3909 4.64826V9.19288L18.3735 9.26111C18.3583 9.31378 18.3393 9.36527 18.3167 9.41516C18.2969 9.45841 18.2742 9.50032 18.249 9.54061C18.2359 9.55822 18.1857 9.61764 18.1398 9.66605C18.0954 9.70929 18.0472 9.74833 17.9957 9.7827C17.9539 9.80821 17.9101 9.83029 17.8647 9.84872L17.7512 9.88833L17.6245 9.91034H17.5481H17.4673C17.4165 9.90457 17.3661 9.89501 17.3167 9.88173C17.2759 9.8691 17.2358 9.85441 17.1966 9.83772C17.1565 9.8184 17.1179 9.79634 17.0808 9.77169C17.0311 9.73601 16.9844 9.69626 16.9411 9.65285C16.8972 9.60917 16.8577 9.56126 16.8232 9.5098H16.8188Z" fill="#FCFCFC"/>
</g>
<defs>
<clipPath id="clip0_390_1107">
<rect width="28.8485" height="34" fill="white" transform="translate(10.5757)"/>
</clipPath>
</defs>
</svg>
